<svg width="50" height="50" viewBox="0 0 50 50" fill="none" xmlns="http://www.w3.org/2000/svg">
<g clip-path="url(#clip0_250_12)">
<rect width="50" height="50" rx="10" fill="#D6FCE1"/>
<g clip-path="url(#clip1_250_12)">
<path d="M14.75 17.625C11.9125 16.8875 11 16.125 11 14.9375C11 13.575 12.2625 12.625 14.375 12.625C16.6 12.625 17.425 13.6875 17.5 15.25H20.2625C20.175 13.1 18.8625 11.125 16.25 10.4875V7.75H12.5V10.45C10.075 10.975 8.12502 12.55 8.12502 14.9625C8.12502 17.85 10.5125 19.2875 14 20.125C17.125 20.875 17.75 21.975 17.75 23.1375C17.75 24 17.1375 25.375 14.375 25.375C11.8 25.375 10.7875 24.225 10.65 22.75H7.90002C8.05002 25.4875 10.1 27.025 12.5 27.5375V30.25H16.25V27.5625C18.6875 27.1 20.625 25.6875 20.625 23.125C20.625 19.575 17.5875 18.3625 14.75 17.625Z" fill="black"/>
</g>
<path d="M27.0597 21.5455H24.6903C24.7074 21.3437 24.696 21.1619 24.6562 21C24.6165 20.8381 24.5483 20.6989 24.4517 20.5824C24.3551 20.4631 24.2287 20.3722 24.0724 20.3097C23.9162 20.2472 23.7301 20.2159 23.5142 20.2159C23.0994 20.2159 22.7287 20.3196 22.402 20.527C22.0753 20.7315 21.804 21.0256 21.5881 21.4091C21.3722 21.7898 21.2188 22.2443 21.1278 22.7727C21.0483 23.2841 21.0455 23.7088 21.1193 24.0469C21.196 24.3849 21.3452 24.6378 21.5668 24.8054C21.7912 24.973 22.0824 25.0568 22.4403 25.0568C22.679 25.0568 22.8977 25.0284 23.0966 24.9716C23.2983 24.9148 23.4773 24.8338 23.6335 24.7287C23.7926 24.6207 23.9276 24.4929 24.0384 24.3452C24.152 24.1946 24.2386 24.0284 24.2983 23.8466H26.6847C26.5938 24.2159 26.4318 24.5937 26.1989 24.9801C25.9659 25.3636 25.6648 25.7173 25.2955 26.0412C24.9261 26.3622 24.4915 26.6222 23.9915 26.821C23.4915 27.0199 22.929 27.1193 22.304 27.1193C21.4858 27.1193 20.7798 26.9403 20.1861 26.5824C19.5952 26.2244 19.1662 25.7017 18.8991 25.0142C18.6349 24.3267 18.5824 23.4886 18.7415 22.5C18.9006 21.5455 19.2145 20.7457 19.6832 20.1009C20.152 19.456 20.7216 18.9702 21.392 18.6435C22.0625 18.3168 22.7756 18.1534 23.5312 18.1534C24.1023 18.1534 24.6136 18.2287 25.0653 18.3793C25.5199 18.5298 25.902 18.75 26.2116 19.0398C26.5241 19.3267 26.7543 19.6804 26.902 20.1009C27.0497 20.5213 27.1023 21.0028 27.0597 21.5455ZM36.2823 21.5455H33.913C33.93 21.3437 33.9187 21.1619 33.8789 21C33.8391 20.8381 33.771 20.6989 33.6744 20.5824C33.5778 20.4631 33.4513 20.3722 33.2951 20.3097C33.1388 20.2472 32.9528 20.2159 32.7369 20.2159C32.3221 20.2159 31.9513 20.3196 31.6246 20.527C31.2979 20.7315 31.0266 21.0256 30.8107 21.4091C30.5948 21.7898 30.4414 22.2443 30.3505 22.7727C30.271 23.2841 30.2681 23.7088 30.342 24.0469C30.4187 24.3849 30.5678 24.6378 30.7894 24.8054C31.0138 24.973 31.305 25.0568 31.663 25.0568C31.9016 25.0568 32.1204 25.0284 32.3192 24.9716C32.521 24.9148 32.6999 24.8338 32.8562 24.7287C33.0153 24.6207 33.1502 24.4929 33.261 24.3452C33.3746 24.1946 33.4613 24.0284 33.521 23.8466H35.9073C35.8164 24.2159 35.6545 24.5937 35.4215 24.9801C35.1886 25.3636 34.8874 25.7173 34.5181 26.0412C34.1488 26.3622 33.7141 26.6222 33.2141 26.821C32.7141 27.0199 32.1516 27.1193 31.5266 27.1193C30.7085 27.1193 30.0025 26.9403 29.4087 26.5824C28.8178 26.2244 28.3888 25.7017 28.1218 25.0142C27.8576 24.3267 27.805 23.4886 27.9641 22.5C28.1232 21.5455 28.4371 20.7457 28.9059 20.1009C29.3746 19.456 29.9442 18.9702 30.6147 18.6435C31.2852 18.3168 31.9982 18.1534 32.7539 18.1534C33.3249 18.1534 33.8363 18.2287 34.288 18.3793C34.7425 18.5298 35.1246 18.75 35.4343 19.0398C35.7468 19.3267 35.9769 19.6804 36.1246 20.1009C36.2724 20.5213 36.3249 21.0028 36.2823 21.5455Z" fill="black"/>
<g clip-path="url(#clip2_250_12)">
<path d="M38.3666 31.3853L40.3342 33.1913L33.1105 41.0618L31.1428 39.2558L38.3666 31.3853ZM45.2533 37.7061L42.3018 34.9972C41.7607 34.5006 40.9117 34.5369 40.415 35.078L34.9972 40.9809C34.5006 41.522 34.537 42.3711 35.0781 42.8677L38.0295 45.5766C38.5706 46.0732 39.4197 46.0368 39.9163 45.4958L45.3341 39.5929C45.8307 39.0518 45.7944 38.2027 45.2533 37.7061ZM38.8516 42.706L37.8678 41.803L41.4797 37.8678L42.4635 38.7708L38.8516 42.706ZM51.1561 43.1239L48.2047 40.415C47.6636 39.9184 46.8146 39.9547 46.3179 40.4958L40.9001 46.3987C40.4035 46.9398 40.4399 47.7889 40.981 48.2855L43.9324 50.9944C44.4735 51.491 45.3225 51.4547 45.8192 50.9136L51.237 45.0107C51.7336 44.4696 51.6972 43.6205 51.1561 43.1239ZM44.7545 48.1238L43.7707 47.2208L47.3826 43.2856L48.3664 44.1886L44.7545 48.1238Z" fill="black"/>
<path d="M39.027 24.7412L24.5795 40.4822L44.2557 58.5416L58.7032 42.8006L39.027 24.7412ZM28.353 40.3205L39.1887 28.5148L54.9297 42.9623L44.0941 54.768L28.353 40.3205Z" fill="black"/>
</g>
</g>
<rect x="0.5" y="0.5" width="49" height="49" rx="9.5" stroke="black"/>
<defs>
<clipPath id="clip0_250_12">
<rect width="50" height="50" rx="10" fill="white"/>
</clipPath>
<clipPath id="clip1_250_12">
<rect width="30" height="30" fill="white" transform="translate(0 4)"/>
</clipPath>
<clipPath id="clip2_250_12">
<rect width="32.0491" height="32.0491" fill="white" transform="translate(40.6713 19) rotate(42.5465)"/>
</clipPath>
</defs>
</svg>